<svg width="100%" height="100%" viewBox="0 0 118 119" fill="none" xmlns="http://www.w3.org/2000/svg">
<path fill-rule="evenodd" clip-rule="evenodd" d="M10.3601 56.0935C10.3601 51.9348 12.1252 47.9714 15.2163 45.1894L49.4463 14.3824C55.0254 9.36123 63.4947 9.36122 69.0738 14.3824L103.304 45.1894C106.395 47.9714 108.16 51.9348 108.16 56.0935V93.57C108.16 101.672 101.592 108.24 93.4901 108.24H78.8201L78.7928 108.24H39.7274L39.7001 108.24H25.0301C16.928 108.24 10.3601 101.672 10.3601 93.57V56.0935Z" fill="#484848"/>
<path d="M44.5901 78.9C44.5901 73.4986 48.9687 69.12 54.3701 69.12H64.1501C69.5514 69.12 73.9301 73.4986 73.9301 78.9V108.24H44.5901V78.9Z" fill="#ffb400"/>
</svg>
